<svg width="500" height="400" viewBox="0 0 500 400" fill="none" xmlns="http://www.w3.org/2000/svg">
  <!-- Background -->
  <rect width="500" height="400" fill="url(#bgGradient)"/>
  
  <!-- Floating Elements -->
  <g opacity="0.1">
    <circle cx="100" cy="80" r="20" fill="#4A90E2"/>
    <circle cx="400" cy="120" r="15" fill="#357ABD"/>
    <circle cx="80" cy="320" r="25" fill="#4A90E2"/>
    <circle cx="420" cy="350" r="18" fill="#357ABD"/>
  </g>
  
  <!-- Main Tech Building -->
  <rect x="150" y="200" width="200" height="150" rx="10" fill="white" stroke="#4A90E2" stroke-width="3"/>
  
  <!-- Building Windows -->
  <rect x="170" y="220" width="30" height="30" fill="#4A90E2" opacity="0.3"/>
  <rect x="220" y="220" width="30" height="30" fill="#4A90E2" opacity="0.3"/>
  <rect x="270" y="220" width="30" height="30" fill="#4A90E2" opacity="0.3"/>
  <rect x="320" y="220" width="30" height="30" fill="#4A90E2" opacity="0.3"/>
  
  <rect x="170" y="270" width="30" height="30" fill="#4A90E2" opacity="0.3"/>
  <rect x="220" y="270" width="30" height="30" fill="#4A90E2" opacity="0.3"/>
  <rect x="270" y="270" width="30" height="30" fill="#4A90E2" opacity="0.3"/>
  <rect x="320" y="270" width="30" height="30" fill="#4A90E2" opacity="0.3"/>
  
  <rect x="170" y="320" width="30" height="30" fill="#4A90E2" opacity="0.3"/>
  <rect x="220" y="320" width="30" height="30" fill="#4A90E2" opacity="0.3"/>
  <rect x="270" y="320" width="30" height="30" fill="#4A90E2" opacity="0.3"/>
  <rect x="320" y="320" width="30" height="30" fill="#4A90E2" opacity="0.3"/>
  
  <!-- Building Door -->
  <rect x="240" y="320" width="20" height="30" fill="#4A90E2"/>
  
  <!-- Laptop/Computer -->
  <rect x="180" y="150" width="140" height="80" rx="5" fill="white" stroke="#4A90E2" stroke-width="2"/>
  <rect x="190" y="160" width="120" height="60" fill="#4A90E2" opacity="0.2"/>
  
  <!-- Screen Content -->
  <rect x="200" y="170" width="100" height="40" fill="#4A90E2" opacity="0.1"/>
  <circle cx="210" cy="180" r="2" fill="#4A90E2"/>
  <circle cx="220" cy="180" r="2" fill="#4A90E2"/>
  <circle cx="230" cy="180" r="2" fill="#4A90E2"/>
  
  <!-- Data Flow Lines -->
  <path d="M50 100 Q150 80 250 100 Q350 120 450 100" stroke="#4A90E2" stroke-width="2" fill="none" opacity="0.6"/>
  <path d="M50 120 Q150 140 250 120 Q350 100 450 120" stroke="#357ABD" stroke-width="2" fill="none" opacity="0.6"/>
  <path d="M50 140 Q150 160 250 140 Q350 160 450 140" stroke="#4A90E2" stroke-width="2" fill="none" opacity="0.6"/>
  
  <!-- Floating Icons -->
  <g transform="translate(80, 60)">
    <circle cx="0" cy="0" r="15" fill="#4A90E2" opacity="0.8"/>
    <path d="M-5 -5 L5 -5 L5 5 L-5 5 Z" fill="white"/>
  </g>
  
  <g transform="translate(420, 80)">
    <circle cx="0" cy="0" r="12" fill="#357ABD" opacity="0.8"/>
    <path d="M-4 -4 L4 -4 L4 4 L-4 4 Z" fill="white"/>
  </g>
  
  <g transform="translate(70, 280)">
    <circle cx="0" cy="0" r="10" fill="#4A90E2" opacity="0.8"/>
    <path d="M-3 -3 L3 -3 L3 3 L-3 3 Z" fill="white"/>
  </g>
  
  <!-- Connection Lines -->
  <path d="M95 75 L150 150" stroke="#4A90E2" stroke-width="1" opacity="0.4" stroke-dasharray="5,5"/>
  <path d="M432 92 L320 150" stroke="#357ABD" stroke-width="1" opacity="0.4" stroke-dasharray="5,5"/>
  <path d="M80 290 L150 200" stroke="#4A90E2" stroke-width="1" opacity="0.4" stroke-dasharray="5,5"/>
  
  <!-- Growth Chart -->
  <g transform="translate(350, 250)">
    <rect width="80" height="60" fill="white" stroke="#4A90E2" stroke-width="1" opacity="0.8"/>
    <path d="M10 50 L20 40 L30 30 L40 20 L50 10 L60 5 L70 15" stroke="#4A90E2" stroke-width="2" fill="none"/>
    <circle cx="20" cy="40" r="2" fill="#4A90E2"/>
    <circle cx="30" cy="30" r="2" fill="#4A90E2"/>
    <circle cx="40" cy="20" r="2" fill="#4A90E2"/>
    <circle cx="50" cy="10" r="2" fill="#4A90E2"/>
    <circle cx="60" cy="5" r="2" fill="#4A90E2"/>
    <circle cx="70" cy="15" r="2" fill="#4A90E2"/>
  </g>
  
  <!-- Gradients -->
  <defs>
    <linearGradient id="bgGradient" x1="0%" y1="0%" x2="100%" y2="100%">
      <stop offset="0%" style="stop-color:#f8fbff;stop-opacity:1" />
      <stop offset="100%" style="stop-color:#e8f4ff;stop-opacity:1" />
    </linearGradient>
  </defs>
</svg> 