<svg width="40" height="40" viewBox="0 0 40 40" fill="none" xmlns="http://www.w3.org/2000/svg">
  <!-- Background Circle -->
  <circle cx="20" cy="20" r="18" fill="#4A90E2" stroke="#357ABD" stroke-width="2"/>
  
  <!-- Tech Circuit Pattern -->
  <path d="M8 20 L12 20 M28 20 L32 20 M20 8 L20 12 M20 28 L20 32" stroke="white" stroke-width="2" stroke-linecap="round"/>
  
  <!-- Central Tech Symbol -->
  <path d="M16 16 L24 16 L24 24 L16 24 Z" fill="white"/>
  <circle cx="20" cy="20" r="2" fill="#4A90E2"/>
  
  <!-- Connection Lines -->
  <path d="M12 16 L16 16 M24 16 L28 16 M12 24 L16 24 M24 24 L28 24" stroke="white" stroke-width="1.5" stroke-linecap="round"/>
  <path d="M16 12 L16 16 M16 24 L16 28 M24 12 L24 16 M24 24 L24 28" stroke="white" stroke-width="1.5" stroke-linecap="round"/>
</svg> 